<svg xmlns="http://www.w3.org/2000/svg" width="322.516" height="253.25" viewBox="0 0 322.516 253.25">
  <g id="Group_59" data-name="Group 59" transform="translate(-406.912 -906.418)">
    <g id="Group_40" data-name="Group 40" transform="translate(406.912 1011.64)">
      <path id="Path_28" data-name="Path 28" d="M539.172,1133.549a3.452,3.452,0,0,0-2.575-.567l-126.836,22.451a3.452,3.452,0,0,0-1.373,6.229L578.65,1280.337a3.452,3.452,0,0,0,2.575.567l126.836-22.451a3.452,3.452,0,0,0,1.372-6.229Z" transform="translate(-406.912 -1132.929)" fill="#5969f6" fill-rule="evenodd"/>
    </g>
    <g id="Group_41" data-name="Group 41" transform="translate(426.289 1011.44)">
      <path id="Path_29" data-name="Path 29" d="M1119.03,1238.168l-125.689,22.247-157.716-122.14L947.344,1118.5Z" transform="translate(-835.626 -1118.5)" fill="rgba(0,0,0,0.07)" fill-rule="evenodd"/>
    </g>
    <g id="Group_42" data-name="Group 42" transform="translate(434.249 963.952)">
      <path id="Path_30" data-name="Path 30" d="M600,1031.339a3.451,3.451,0,0,0-3.1-1.014l-128.3,22.71a3.452,3.452,0,0,0-1.893,5.782l147.524,154.415a3.451,3.451,0,0,0,3.1,1.013l128.3-22.71a3.452,3.452,0,0,0,1.893-5.782Z" transform="translate(-465.761 -1030.273)" fill="#6bc1ff" fill-rule="evenodd"/>
    </g>
    <g id="Group_43" data-name="Group 43" transform="translate(455.129 963.682)">
      <path id="Path_31" data-name="Path 31" d="M1159.441,1172.321l-132.856,23.519L897.708,1035.53l112.088-19.84Z" transform="translate(-897.708 -1015.69)" fill="rgba(0,0,1,0.07)" fill-rule="evenodd"/>
    </g>
    <g id="Group_44" data-name="Group 44" transform="translate(480.619 915.449)">
      <path id="Path_32" data-name="Path 32" d="M702.1,928.8a5.909,5.909,0,0,0-6.139-2.848L568.43,948.525a3.452,3.452,0,0,0-2.382,5.132L674.726,1140.55a3.45,3.45,0,0,0,3.585,1.663l129.223-22.874a3.452,3.452,0,0,0,2.382-5.132Z" transform="translate(-565.581 -925.86)" fill="#fff" fill-rule="evenodd"/>
    </g>
    <g id="Group_45" data-name="Group 45" transform="translate(482.993 915.446)">
      <path id="Path_33" data-name="Path 33" d="M957.7,934.636a3.45,3.45,0,0,1,.468-.117L1085.7,911.944a5.913,5.913,0,0,1,6.141,2.849c13.843,23.809,92.749,159.506,107.814,185.4a3.479,3.479,0,0,1,.46,1.937,3.125,3.125,0,0,1-.469.116l-129.219,22.874a3.441,3.441,0,0,1-3.586-1.663c-10.982-18.883-93.264-160.38-108.678-186.889A3.452,3.452,0,0,1,957.7,934.636Z" transform="translate(-957.693 -911.853)" fill="rgba(0,0,0,0.07)" fill-rule="evenodd"/>
    </g>
    <g id="Group_46" data-name="Group 46" transform="translate(484.626 906.418)">
      <path id="Path_34" data-name="Path 34" d="M710.726,909.356a5.909,5.909,0,0,0-6.139-2.847L577.056,929.083a3.452,3.452,0,0,0-2.382,5.132l108.678,186.893a3.45,3.45,0,0,0,3.585,1.663L816.159,1099.9a3.452,3.452,0,0,0,2.382-5.132Z" transform="translate(-574.207 -906.418)" fill="#fff" fill-rule="evenodd"/>
    </g>
    <g id="Group_47" data-name="Group 47" transform="translate(506.376 929.988)">
      <path id="Path_35" data-name="Path 35" d="M677.279,957.776a2.093,2.093,0,0,0-2.174-.559l-52.6,9.312a2.314,2.314,0,0,0-1.179.568c-.281.275-.368.578-.232.812l26.079,44.849a1.222,1.222,0,0,0,1.269.327l53.3-9.435a2.314,2.314,0,0,0,1.179-.569c.281-.274.368-.578.232-.812Z" transform="translate(-621.028 -957.157)" fill="#5969f6" fill-rule="evenodd"/>
    </g>
    <g id="Group_48" data-name="Group 48" transform="translate(585.995 975.414)">
      <path id="Path_36" data-name="Path 36" d="M848.675,1055.566a2.093,2.093,0,0,0-2.174-.559l-52.6,9.312a2.314,2.314,0,0,0-1.179.569c-.281.275-.368.578-.232.812l26.079,44.849a1.222,1.222,0,0,0,1.27.327l53.3-9.435a2.314,2.314,0,0,0,1.179-.568c.282-.274.368-.578.232-.812Z" transform="translate(-792.424 -1054.946)" fill="#6bc1ff" fill-rule="evenodd"/>
    </g>
    <g id="Group_49" data-name="Group 49" transform="translate(568.099 921.303)">
      <path id="Path_37" data-name="Path 37" d="M794.833,938.518c-.055-.094-.578-.07-1.311.059l-38.269,6.774a7.367,7.367,0,0,0-.961.236c-.269.089-.415.167-.39.21l4.767,8.2c.032.055.337.041.765-.035L798.21,947.1a7.37,7.37,0,0,0,.961-.236c.269-.089.415-.167.39-.21Z" transform="translate(-753.899 -938.461)" fill="#eee" fill-rule="evenodd"/>
    </g>
    <g id="Group_50" data-name="Group 50" transform="translate(575.343 933.776)">
      <path id="Path_38" data-name="Path 38" d="M810.428,965.369c-.055-.094-.578-.07-1.311.059L770.848,972.2a7.384,7.384,0,0,0-.961.236c-.269.089-.415.167-.39.21l4.767,8.2c.032.055.338.041.765-.035l38.777-6.864a7.362,7.362,0,0,0,.961-.236c.269-.089.415-.167.39-.21Z" transform="translate(-769.494 -965.312)" fill="#eee" fill-rule="evenodd"/>
    </g>
    <g id="Group_51" data-name="Group 51" transform="translate(583.12 946.846)">
      <path id="Path_39" data-name="Path 39" d="M827.169,993.505c-.055-.094-.578-.07-1.311.059l-38.269,6.774a7.357,7.357,0,0,0-.961.236c-.269.089-.415.167-.39.21l4.767,8.2c.032.055.338.041.765-.035l38.777-6.864a7.369,7.369,0,0,0,.961-.236c.269-.089.415-.167.39-.21Z" transform="translate(-786.235 -993.448)" fill="#eee" fill-rule="evenodd"/>
    </g>
    <g id="Group_52" data-name="Group 52" transform="translate(590.365 959.317)">
      <path id="Path_40" data-name="Path 40" d="M842.765,1020.352c-.055-.094-.578-.07-1.311.059l-38.269,6.774a7.367,7.367,0,0,0-.961.236c-.269.089-.415.167-.39.21l4.767,8.2c.032.055.337.041.765-.035l38.777-6.864a7.369,7.369,0,0,0,.961-.236c.269-.089.415-.167.39-.21Z" transform="translate(-801.831 -1020.295)" fill="#eee" fill-rule="evenodd"/>
    </g>
    <g id="Group_53" data-name="Group 53" transform="translate(536.271 987.826)">
      <path id="Path_41" data-name="Path 41" d="M726.317,1081.722c-.055-.094-.578-.07-1.311.059l-38.269,6.774a7.387,7.387,0,0,0-.961.236c-.269.089-.415.167-.39.21l4.767,8.2c.032.055.337.041.765-.035l38.777-6.864a7.37,7.37,0,0,0,.961-.236c.269-.089.415-.167.39-.21Z" transform="translate(-685.383 -1081.665)" fill="#eee" fill-rule="evenodd"/>
    </g>
    <g id="Group_54" data-name="Group 54" transform="translate(543.516 1000.299)">
      <path id="Path_42" data-name="Path 42" d="M741.913,1108.572c-.055-.094-.578-.07-1.311.059l-38.269,6.774a7.386,7.386,0,0,0-.961.236c-.269.089-.415.167-.39.21l4.767,8.2c.032.055.338.041.765-.035l38.777-6.864a7.392,7.392,0,0,0,.961-.236c.269-.089.415-.167.39-.21Z" transform="translate(-700.979 -1108.515)" fill="#eee" fill-rule="evenodd"/>
    </g>
    <g id="Group_55" data-name="Group 55" transform="translate(551.293 1013.371)">
      <path id="Path_43" data-name="Path 43" d="M758.654,1136.712c-.055-.094-.578-.07-1.311.059l-38.269,6.774a7.351,7.351,0,0,0-.961.236c-.269.089-.415.167-.39.21l4.767,8.2c.032.055.338.041.765-.035l38.777-6.864a7.368,7.368,0,0,0,.961-.236c.269-.089.415-.167.39-.21Z" transform="translate(-717.72 -1136.655)" fill="#eee" fill-rule="evenodd"/>
    </g>
    <g id="Group_56" data-name="Group 56" transform="translate(558.537 1025.843)">
      <path id="Path_44" data-name="Path 44" d="M774.249,1163.562c-.055-.094-.578-.07-1.311.059l-38.269,6.774a7.388,7.388,0,0,0-.961.236c-.269.089-.415.167-.39.21l4.767,8.2c.032.055.337.041.765-.035l38.777-6.864a7.37,7.37,0,0,0,.961-.236c.269-.089.415-.167.39-.21Z" transform="translate(-733.315 -1163.505)" fill="#eee" fill-rule="evenodd"/>
    </g>
    <g id="Group_57" data-name="Group 57" transform="translate(590.936 1082.397)">
      <path id="Path_45" data-name="Path 45" d="M926.717,1285.289a15.105,15.105,0,0,0-3.8.443l-115.585,20.46c-1.006.178-2.112.407-2.962.612s-1.336.361-1.3.418l6.358,10.931a8.814,8.814,0,0,0,2.222-.259l117.118-20.732c1.006-.178,2.112-.407,2.962-.612s1.336-.362,1.3-.419Z" transform="translate(-803.06 -1285.249)" fill="#eee" fill-rule="evenodd"/>
    </g>
    <g id="Group_58" data-name="Group 58" transform="translate(490.486 921.019) rotate(-24.374)">
      <path id="Path_46" data-name="Path 46" d="M15.544.993a11.7,11.7,0,0,1,6.68,10.338c.047,13,.01,26,.015,39-.03,4.951-5.285,9.16-10.242,7.783a8.3,8.3,0,0,1-5.927-7.7q-.122-19.449,0-38.9A4.68,4.68,0,0,1,10.48,7.057a4.639,4.639,0,0,1,4.638,4.521V41.093c-.068.869-1.554,1.193-1.648,0,0-9.86.181-19.724,0-29.584A2.957,2.957,0,0,0,10.6,8.7a2.856,2.856,0,0,0-2.882,2.8c-.242,12.96-.082,25.929,0,38.891a6.61,6.61,0,0,0,6.44,6.364,7.931,7.931,0,0,0,2.319-.433,6.576,6.576,0,0,0,4.113-5.919c.079-13.044.115-26.088-.015-39.132a10.087,10.087,0,0,0-9.8-9.68,12.658,12.658,0,0,0-3.279.559A10.035,10.035,0,0,0,1.624,7.872c-.025.06-.072.183-.072.183L0,7.649s.076-.192.116-.286C2.433,1.9,9.108-1.8,15.354.909,15.417.936,15.481.966,15.544.993Z" transform="translate(0 0)" fill="#6bc1ff"/>
    </g>
  </g>
</svg>
