<svg xmlns="http://www.w3.org/2000/svg" width="375.148" height="308.931" viewBox="0 0 375.148 308.931">
  <g id="Group_15" data-name="Group 15" transform="translate(-1066.556 -1197.243)">
    <g id="Group_7" data-name="Group 7" transform="translate(1123.03 1292.742)">
      <path id="Path_2" data-name="Path 2" stroke="#414fb0" d="M1091.986,1258.836s15.361-17.834,26.715-31.017a20.406,20.406,0,0,1,27-3.512c10.166,6.975,23.573,16.169,34,23.318a20.406,20.406,0,0,0,28.026-4.8l8.573-11.764" fill="none" transform="translate(-1091.986 -1220.731)" stroke-linecap="round" stroke-linejoin="round" stroke-miterlimit="1.5" stroke-width="3.552" fill-rule="evenodd"/>
    </g>
    <path id="Path_3" data-name="Path 3" d="M1068.3,1565.246c2.488-1.293,7.434-2.239,13.326-2.392,8.9-.224,16.633,1.46,17.249,3.76a1.216,1.216,0,0,1-.239,1.069c25.655-7.337,65.933-13.947,102.4-14.873h0c1.435-.036,4.62-.814,4.483.285-.122,1,.158,2.061-.021,2.753a1.881,1.881,0,0,1-.188.463,3.442,3.442,0,0,0-.438,2.773c1.181,4.416,10.736,7.785,21.32,7.515s18.221-4.076,17.041-8.492h0a2.353,2.353,0,0,1,1.374-2.57,7.07,7.07,0,0,1,4.244-.809,292,292,0,0,1,33.99,5.648c10.685-3.246,23.843-5.307,38.442-5.678,40.95-1.043,77.809,11.606,82.256,28.23,3.994,14.924-19.478,28.011-53.951,31.282-6.243.605-11.835,2.692-15.555,5.8-10.538,8.757-28.113,16.186-50.363,20.948-1.817.392-3.007,1.455-2.951,2.626s1.353,2.183,3.206,2.509c10.578,1.847,17.468,4.02,18.134,6.518,3.76,14.054-36.818,26.576-90.565,27.94s-100.432-8.935-104.192-22.994a7.4,7.4,0,0,1-.087-2.91c2.326-3.7,23.584,5.18,40.309,4.7,20.083-.575,33.923-10.583,1.567-15.977h0c-70.772-9.143,41.342-35.892-66.351-56.668-7.195-1.389-10.461-3.277-10.563-5.449h0v-2.086h.789c1.959-2.575,7.475-5.424,15.519-8.268-1.45.153-3,.254-4.63.3-8.9.224-16.633-1.455-17.249-3.76a1.014,1.014,0,0,1-.031-.427h-.01v-2.086h1.735Zm30.122,79.361c1.516-1.094,4.335-1.857,7.734-1.944,3.852-.1,7.424.7,9.424,1.944h1.649v2.086h0c.183,2.081-3.684,3.826-8.935,3.959-5.49.137-10.426-1.537-11.016-3.74a1.874,1.874,0,0,1-.046-.219h-.025v-2.086Zm263.774-13.916c10.584-.265,19.7,1.45,21.432,6.172a12.519,12.519,0,0,1,.081,2.58c-.193,3.786-7.668,7.017-17.229,7.261-10.589.27-20.144-3.1-21.325-7.515a18.673,18.673,0,0,1-.112-2.661C1345.314,1632.609,1352.519,1630.94,1362.192,1630.69Zm27.883-11.845c5.1-.132,9.963-.036,11.062,1.939a11.66,11.66,0,0,1-.158,2.966c-.8,1.674-4.279,2.966-8.767,3.078-5.49.142-10.426-1.536-11.016-3.74a9.555,9.555,0,0,1-.056-2.524C1381.8,1618.819,1385.455,1618.962,1390.075,1618.845Zm-311.7-10.167c1.745-3.211,8.289-5.653,16.694-5.867,9.225-.234,17.661,2.29,20.465,5.867h.936v2.015c.677,4.259-6.823,7.866-17.117,8.126-10.583.27-20.139-3.1-21.32-7.515a3.449,3.449,0,0,1-.1-.539h-.005v-.051a3.158,3.158,0,0,1,0-.621v-1.415Z" transform="translate(-0.002 -174.499)" fill="#63b4f5" fill-rule="evenodd"/>
    <g id="Group_8" data-name="Group 8" transform="translate(1066.556 1375.974)">
      <path id="Path_4" data-name="Path 4" d="M1282.308,846.719c25.655-7.339,65.933-13.947,102.4-14.875h0a5.72,5.72,0,0,1,3.663,1.064,1.843,1.843,0,0,1,.616,2.438,3.437,3.437,0,0,0-.438,2.772c1.181,4.418,10.736,7.787,21.32,7.518s18.221-4.075,17.041-8.493h0a2.353,2.353,0,0,1,1.374-2.571,7.054,7.054,0,0,1,4.244-.807,291.577,291.577,0,0,1,33.984,5.649c10.69-3.252,23.849-5.312,38.447-5.683,40.95-1.043,77.809,11.611,82.256,28.234,3.994,14.921-19.483,28.005-53.951,31.278-6.243.606-11.84,2.695-15.555,5.8-10.538,8.755-28.112,16.187-50.368,20.948-1.811.39-3.007,1.451-2.946,2.624s1.354,2.184,3.206,2.509c10.578,1.847,17.463,4.019,18.135,6.516,3.76,14.055-36.818,26.579-90.566,27.943s-100.432-8.938-104.192-22.993c-1.8-6.72,21.829,2.314,40.217,1.788,20.088-.575,33.929-10.584,1.573-15.976h0c-70.772-9.145,41.342-35.891-66.351-56.669-17.351-3.347-11.845-9.581,5.745-15.806-1.45.155-3.007.257-4.63.3-8.9.229-16.639-1.457-17.254-3.756s6.116-4.353,15.025-4.579,16.634,1.457,17.249,3.756A1.236,1.236,0,0,1,1282.308,846.719Zm7.52,74.981c5.49-.139,10.426,1.538,11.016,3.74s-3.389,4.105-8.879,4.245-10.431-1.534-11.016-3.74S1284.338,921.84,1289.828,921.7Zm256.035-11.973c10.589-.269,20.144,3.1,21.325,7.518s-6.452,8.223-17.041,8.492-20.139-3.1-21.32-7.518S1535.28,910,1545.863,909.727Zm27.889-11.849c5.49-.139,10.426,1.538,11.016,3.74s-3.389,4.105-8.879,4.245-10.431-1.535-11.016-3.74S1568.262,898.017,1573.752,897.878Zm-295.006-16.032c10.589-.269,20.139,3.1,21.325,7.518s-6.452,8.22-17.041,8.489-20.139-3.1-21.32-7.515S1268.163,882.115,1278.746,881.846Z" transform="translate(-1250.234 -831.842)" fill="#6bc1ff" fill-rule="evenodd"/>
    </g>
    <path id="Path_5" data-name="Path 5" d="M1191.85,1556.13a468.453,468.453,0,0,1,70.721-7.622h0a5.721,5.721,0,0,1,3.664,1.063,1.845,1.845,0,0,1,.61,2.442,3.428,3.428,0,0,0-.437,2.768c1.18,4.417,10.736,7.785,21.32,7.52s18.221-4.076,17.041-8.5h0a2.353,2.353,0,0,1,1.374-2.57,7.07,7.07,0,0,1,4.244-.8c6.706.728,13.214,1.644,19.473,2.727l-26.057,61.466c-25.614,9.53-66.717-26.011-104.283-51.249h0A32.3,32.3,0,0,1,1191.85,1556.13Z" transform="translate(-61.541 -172.532)" fill="rgba(0,0,0,0.07)" fill-rule="evenodd"/>
    <g id="Group_9" data-name="Group 9" transform="translate(1130.98 1332.964)">
      <path id="Path_6" data-name="Path 6" d="M1429.064,1475.325a8.264,8.264,0,0,0-8.927-11.251L1193.17,1499l111.281,74.108,191.127-29.411a9.808,9.808,0,0,0,.731-19.246h0a14.266,14.266,0,0,1-9.129-6.789c-.7-1.228-1.487-2.6-2.324-4.051a31.256,31.256,0,0,0-32.242-15.284l-4.488.741a17.463,17.463,0,0,1-19.063-23.743Z" transform="translate(-1193.17 -1463.978)" fill="#5969f6" fill-rule="evenodd"/>
    </g>
    <g id="Group_10" data-name="Group 10" transform="translate(1112.891 1298.667)">
      <path id="Path_7" data-name="Path 7" d="M2074.925,1938a41.394,41.394,0,0,1-17.942-34.281c0-22.7,17.253-40.426,39.372-40.426,10.434,0,18.448,3.4,27.778,10.11h0l84.684,58.129-41.248,70.39L2074.925,1938Z" transform="translate(-2056.982 -1863.29)" fill="#5969f6" fill-rule="evenodd"/>
    </g>
    <g id="Group_11" data-name="Group 11" transform="translate(1202.182 1359.832)">
      <ellipse id="Ellipse_1" data-name="Ellipse 1" cx="40.075" cy="41.129" rx="40.075" ry="41.129" transform="translate(0 0)" fill="#5261e5"/>
    </g>
    <g id="Group_12" data-name="Group 12" transform="translate(1223.081 1381.278)">
      <ellipse id="Ellipse_2" data-name="Ellipse 2" cx="19.181" cy="19.686" rx="19.181" ry="19.686" transform="translate(0 0)" fill="#fff"/>
    </g>
    <g id="Group_13" data-name="Group 13" transform="translate(1240.447 1197.243)">
      <path id="Path_8" data-name="Path 8" d="M1539.061,1263.743a7.091,7.091,0,0,1,8.355-2.921,65.665,65.665,0,0,1,17.666,9.3c6.864,5.343,11.8,13.138,14.13,17.285a4.461,4.461,0,0,1-.565,5.144c-11.367,12.776-66.076,74.242-66.076,74.242a14.329,14.329,0,0,1-19.152,2.046h0a18.418,18.418,0,0,1-4.742-24.647C1503.021,1321.291,1530.172,1277.939,1539.061,1263.743Z" transform="translate(-1485.866 -1260.421)" fill="#5261e5" fill-rule="evenodd"/>
    </g>
    <g id="Group_14" data-name="Group 14" transform="translate(1223.077 1381.278)">
      <path id="Path_9" data-name="Path 9" d="M1637.958-1843.009c8.121.7,14.466,6.482,14.466,13.509,0,7.495-7.225,13.58-16.125,13.58-7.841,0-14.379-4.722-15.829-10.965a20.26,20.26,0,0,0-.3,3.491,19.449,19.449,0,0,0,19.183,19.686,19.448,19.448,0,0,0,19.177-19.686,19.445,19.445,0,0,0-19.177-19.687c-.473,0-.936.015-1.4.051Z" transform="translate(-1620.17 1843.08)" fill="#eee" fill-rule="evenodd"/>
    </g>
  </g>
</svg>
